# xmcd
#
# Track frame offsets: 
#        150
#        16152
#        35325
#        49405
#        67910
#        84322
#        102747
#        119945
#        135000
#        153105
#        167505
#        184727
#        203762
#        221227
#        233560
#        249595
#
# Disc length: 3556 seconds
#
# Revision: 10
# Processed by: cddbd v1.5.2PL0 Copyright (c) Steve Scherf et al.
# Submitted via: ExactAudioCopy v0.99pb5
#
DISCID=d30de210
DTITLE=容祖兒 - 喜歡祖兒 (新曲+精選)
DYEAR=2001
DGENRE=Pop
TTITLE0=痛愛
TTITLE1=精神戀愛
TTITLE2=你說得對
TTITLE3=雙腳著地
TTITLE4=未知
TTITLE5=逃避你
TTITLE6=這分鍾更愛你
TTITLE7=不容錯失
TTITLE8=Lovin' U
TTITLE9=何苦
TTITLE10=相當刺激
TTITLE11=Goodbye
TTITLE12=誰來愛我
TTITLE13=撈針
TTITLE14=美麗在望
TTITLE15=我們都寂寞
EXTD=YEAR: 2001
EXTT0=
EXTT1=
EXTT2=
EXTT3=
EXTT4=
EXTT5=
EXTT6=
EXTT7=
EXTT8=
EXTT9=
EXTT10=
EXTT11=
EXTT12=
EXTT13=
EXTT14=
EXTT15=
PLAYORDER=
